<?xml version="1.0" encoding="utf-8"?>
<!-- Generator: Adobe Illustrator 19.0.0, SVG Export Plug-In . SVG Version: 6.00 Build 0)  -->
<svg version="1.1" id="Livello_2" xmlns="http://www.w3.org/2000/svg" xmlns:xlink="http://www.w3.org/1999/xlink" x="0px" y="0px"
	 viewBox="0 0 595.3 841.9" style="enable-background:new 0 0 595.3 841.9;" xml:space="preserve">
<style type="text/css">
	.st0{fill:#FFFFFF;}
	.st1{fill:none;}
	.st2{fill:#2F4B95;}
	.st3{fill:#E22A24;}
	.st4{fill:none;stroke:#E22824;stroke-width:2.5;stroke-miterlimit:10;}
	.st5{fill:none;stroke:#E32B24;stroke-width:0.75;stroke-miterlimit:10;}
	.st6{fill:none;stroke:#010202;stroke-miterlimit:10;}
	.st7{fill:none;stroke:#010202;stroke-width:0.75;stroke-miterlimit:10;}
	.st8{fill:none;stroke:#010202;stroke-width:0.4;stroke-miterlimit:10;}
	.st9{fill:#010202;}
</style>
<g id="guide">
</g>
<circle id="cerchio_bianco" class="st0" cx="296.3" cy="421.7" r="225.5"/>
<g id="Livello_1">
	<rect y="123.3" class="st1" width="654.8" height="654.8"/>
	<rect y="123.3" class="st1" width="1286.7" height="1286.7"/>
	<g>
		<g transform="matrix(0.909714, 0, 0, 0.909714, 365.112, 397.024)">
			<path class="st2" d="M-75.7-263.8c-159.5,0-288.7,129.3-288.7,288.9S-235,313.9-75.7,313.9c159.5,0,288.7-129.3,288.7-288.9
				C213.2-134.5,83.9-263.8-75.7-263.8z M-75.7,274.3c-136.9,0-247.9-111-247.9-248.1c0-136.9,111-248.1,247.9-248.1
				s247.9,111,247.9,248.1C172.4,163.1,61.4,274.3-75.7,274.3z"/>
		</g>
		<g transform="matrix(0.909714, 0, 0, 0.909714, 365.112, 397.024)">
			<rect x="-87.4" y="-291.1" class="st3" width="26.5" height="96"/>
			<rect x="-391.6" y="-0.3" class="st3" width="96" height="26.5"/>
			<rect x="145.2" y="1.2" class="st3" width="96" height="26.5"/>
			<rect x="-87.4" y="245.7" class="st3" width="26.5" height="96"/>
		</g>
		<g transform="matrix(0.909714, 0, 0, 0.909714, 365.112, 397.024)">
			<line class="st4" x1="-74" y1="27.9" x2="-74" y2="4.4"/>
			<line class="st4" x1="-62.4" y1="15.8" x2="-85.9" y2="15.8"/>
		</g>
		<g transform="matrix(0.909714, 0, 0, 0.909714, 365.112, 397.024)">
			<line class="st5" x1="-74" y1="245.7" x2="-74" y2="-194.9"/>
			<line class="st5" x1="-295.5" y1="16" x2="145.2" y2="16"/>
		</g>
		<g>
			<path class="st6" d="M132.7,431.3c0,0,0-6.2,4.9-9.6l4.9-7.3l4.5-7c0,0,13.7-20.2,16.2-18.4c0,0,3.7-6.6,26.7-21
				c0,0,22.2-18.7,70-26.1c0,0,1.1-3,19.6-5.1l10.4-5.6c0,0,18.1-15.8,47.4-20.2l-5.6,7.3c0,0,1.1,3.2-1.9,4.1
				c-3,0.7,2.6,1.9,2.6,1.9v8.1c0,0-3.7,4.1,0.7,3c0,0,1.1,7.7,6.6,7.3c5.6-0.4-3.7,7,13.3,10.3c0,0,60,15.8,66.6,87.5
				c0,0,16.2,70.9-25.2,118.2c0,0,13-70.5,7-69.7l-8.1-3.2l-1.1-10.3c0,0-42.2-19.1-58.1-24.2c0,0-18.5,0.7-20.3-1.9
				c0,0,38.2-22.3,91,4.7c0,0-1.1-13.5-8.5-26.8c0,0-23.3-26.4-77-4.5c0,0-39.5,16.9-50.6,21.3c0,0-22.9,8.8-54.8,10.3l-19.6,1.1
				l-14.5,1.9l-23.7,6.6c0,0-13,2.6-17.7-1.5l-3.4-3c0,0-0.7-12.5,3.4-16.5c0,0-12.6,0.7-10-5.1C130.9,432,132.7,431.3,132.7,431.3z
				"/>
			<path class="st7" d="M215.1,384.3l8.3,1.4c0,0,24.6,22.6,13,34.9"/>
			<path class="st7" d="M232.5,433.9c-2.4,8.5-18.8,20.6-18.8,20.6"/>
			<path class="st6" d="M243.1,432.8c1.6-0.8,1.6-3,1.6-3l-3.4-0.3c0.5-1.4-0.3-5-0.3-5l-1.6-0.3l1.9-3.5c0,0,0.7-8-1.9-5.8
				c0,0,8.8-3.8,11.6-2.7c0,0,21.9-2.2,33.3,1.2c0,0-18.8,16.9-24.4,15l0.3,1.6c0,0-13.8,7-15.6,4.9l-12.2-2.4L243.1,432.8z"/>
			<path class="st8" d="M241.6,418.2c0,0,7.7-3.1,28.3-6.6"/>
			<path class="st8" d="M241.5,420.8c0,0,27.5-7.6,37.6-2.7"/>
			<path class="st8" d="M241.2,424.5c0,0,23.2-3.5,28.6,0"/>
			<path class="st8" d="M275.3,420.9c0,0-16-3.9-34.5,1.1"/>
			<path class="st8" d="M241.6,426.7c0,0,18.3,0.1,18.5,1.8"/>
			<path class="st8" d="M281.5,340.9c0,0,27.9-3.2,65.5,13.3"/>
			<path class="st8" d="M294.1,337.2c0,0,15.2-15,37.4-18.7"/>
			<path class="st8" d="M297.8,337.2c0,0,18.5-12.9,31.8-14.8"/>
			<path class="st8" d="M304.1,337.2c0,0,16.2-11.8,28.2-12.9"/>
			<path class="st8" d="M321.2,345.2c0,0,4.2-4.5,13.1-5.7"/>
			<path class="st8" d="M312.8,342.4c0,0,2-4.3,18.7-6.8"/>
			<path class="st8" d="M308.6,339c0,0,17.5-11.1,23.6-9.1"/>
			<path class="st8" d="M322.1,445.5c0,0,43.7-5.7,64.8,1.8"/>
			<path class="st7" d="M-156.2-78.4"/>
			<path class="st8" d="M396.6,546c0,0,10.7-16,13.7-27.6"/>
			<path class="st7" d="M-70.9-20"/>
			<path class="st8" d="M379.7,469.8c0,0,11-3.2,11.8-4.7"/>
			<path class="st8" d="M383.3,469.8c0,0,6.6-0.7,11.8-4.7"/>
			<path class="st8" d="M385.5,472.3c0,0,11.8-5.4,12.6-7.3"/>
			<path class="st8" d="M396.6,487c0,0,14.8-11,13.7-14.6"/>
			<path class="st8" d="M389.2,474c0,0,6.2-2.4,8.9-5.3"/>
			<path class="st8" d="M403.5,488.6c0,0,4.2-2.2,5-4.5"/>
			<path class="st8" d="M403,492.9c0,0,4.9-2.6,7.4-6.6"/>
			<path class="st8" d="M403.5,499.5c0,0,8-14.4,10.2-13.3"/>
			<path class="st8" d="M398.4,535.4c0,0,6.5-6.5,8.3-18.5"/>
			<path class="st8" d="M400.3,522.3c0,0,8.7-12.7,10-17.9"/>
			<path class="st8" d="M403,510.9c0,0,7-8.9,10.7-18"/>
			<path class="st8" d="M374.3,467.5c0,0,5.3-3.5,12.7-3.8"/>
			<path class="st8" d="M368.9,465c0,0,6.2-3.4,14.4-4.5"/>
			<path class="st8" d="M361.8,460.7c0,0,11.2-4.5,23.7-4.5"/>
			<path class="st8" d="M354.5,458.4c0,0,12-4.2,31-5.1"/>
			<path class="st8" d="M334.1,451.1c0,0,0-3.5,17.1-3.8"/>
			<path class="st8" d="M340,453.2c0,0,17.3-6,21.8-4.1"/>
			<path class="st8" d="M347.1,454.5c0,0,21.7-4.9,23-3.4"/>
			<path class="st8" d="M363.7,462.9c0,0,16.9-5.6,19.5-4.5"/>
			<path class="st8" d="M325.9,451.2c0,0,9.6-5.6,19.6-5.8"/>
			<path class="st6" d="M319.3,422.8c0,0,15.4,9.5,17.7,8.4c0,0,1.5-4.1-1.2-4.5c0,0-3.9-2.6,0-3.7l1.6-2.3h2.7l2.4-1.2
				c0,0,27.3-7.7,55.5,11.4"/>
			<path class="st8" d="M325.9,423.7c0,0,5.7,1.1,6.9,2.8"/>
			<path class="st8" d="M329.3,422c0,0,2.3-0.5,3.4,0.9"/>
			<path class="st8" d="M335.7,417.2c0,0,5.3,1.4,4.3,3.5"/>
			<path class="st8" d="M340.2,415.9c0,0,6.6,2.7,4.5,3.1"/>
			<path class="st8" d="M347.1,414.9c0,0,4.1,3.1,2.8,3.2"/>
			<path class="st8" d="M351,414.4c0,0,5.1,2,3.7,2.8"/>
			<path class="st8" d="M354.5,414.1c0,0,6.1,3.1,5.4,3.5"/>
			<path class="st8" d="M360.1,413.6c0,0,8.1,5.1,6.1,5"/>
			<path class="st8" d="M366.6,414.4c0,0,3.9,2.8,3.5,4.5"/>
			<path class="st8" d="M370.1,414.9c0,0,3.1,2.4,3.4,5"/>
			<path class="st8" d="M374.3,416c0,0,4.1,2.2,2.4,4.7"/>
			<path class="st8" d="M377.8,416.7c0,0,7,4.2,6.6,6.8"/>
			<path class="st6" d="M242.4,451.1c0,0,20.8,14.1,32.9,3.4l-3.1-1.2c0,0-0.7-5.8-3.7-9.1"/>
			<path class="st8" d="M252.3,450.7c0,0,9.2,6.9,20.6,5.4"/>
			<path class="st8" d="M272.3,453.2c0,0-11.1-0.9-12-3.7"/>
			<path class="st6" d="M227.4,389.7l21.3-6.9c0,0,17.7-6.2,32.9,3.5c0,0,14.8,2.2,37.8-0.9c0,0,70.3,1.5,86.6,51.9"/>
			<path class="st7" d="M132.7,431.3l5.7,7h11.6c0,0,13.3,2.6,21.1,8.8c0,0,0.7-4.7,2.7-3c0,0-11.8-10.7-12-8.8l-11.4-2.8h-16.7"/>
			<path class="st6" d="M-373.7-91.6"/>
			<path class="st7" d="M138.3,446.3c0,0,22.2-1.1,32.9,3.2c0,0-9.6-7-32.9-6.6"/>
			<path class="st7" d="M162,447.3l-10,5.6c0,0-7.4,6.2-10.4,1.5"/>
			<path class="st7" d="M140.5,449.6c0,0-4.2,5.1,0,4.7l-4.5,1.8c0,0-1.5,3.4,2.3,3.1c0,0-0.8,3.1,9.5,0l20.2-7.6
				c0,0-1.1,5.4,12.3,2.8c0.4-0.1,0.8-0.1,1.4-0.3"/>
			<path class="st7" d="M180.1,454.7c0,0,17.2,0.3,19.1-2.8"/>
			<path class="st7" d="M164.6,433.9c0,0,11.8,0.7,18-9.3"/>
			<path class="st7" d="M176.1,432.5c0,0,5.3,1.4,4.9,2.8c0,0,0.5,13-0.8,14.2c0,0,5.6-1.1,4.3-21.3"/>
			<path class="st7" d="M183.5,453.2l5-6c0,0,4.5,4.6,12.5-13.4"/>
			<path class="st7" d="M223.2,390.7c0,0,10.4,15.8,10.6,16.1c2.7,7,3.5,15.6-2.8,23c0,0-7.2-1.1-8.9-6.1c0,0,3.7,0.4,5.3-5.8
				c0,0,2.3-2.7,1.6-4.3l-1.6,1.4v-3.4c0,0,4.9-1.4,5.7-6"/>
			<path class="st7" d="M202.9,387c-6.9,1.1-15,13.5-15,13.5s3.7,8-2.4,13"/>
			<path class="st7" d="M182.6,416.3c0,0-11.6,5.8-13-4.9"/>
			<path class="st7" d="M182.6,419.4c0,0,4.5-5.3,5.8-3.1"/>
			<ellipse class="st7" cx="180.1" cy="409.5" rx="3" ry="3"/>
			<ellipse class="st7" cx="180.1" cy="409.5" rx="5.4" ry="5.4"/>
		</g>
		<g transform="matrix(0.909714, 0, 0, 0.909714, 365.112, 397.024)">
			<path class="st9" d="M-205.4,218.4l3-3.3c0.7,0.3,1.8,0.6,3.1,0.7c1-0.6,1.8-1.5,2.2-2.5c0.4-1,0.7-3,1-6l1.8-16.2
				c-6.5,0.7-9.8,3.1-9.8,7.1c0,1.2,0.3,2.4,0.9,3.7l-3.6,3.3c-0.3-0.7-0.4-1.8-0.4-3.1c0-4.3,1.6-7.7,5.1-10
				c3.4-2.2,8.3-3.4,14.7-3.4c10.6,0,15.8,3.7,15.8,11c0,4.3-1.5,8.5-4.5,12.2c-3.9,4.9-10,7.3-18,7.3
				C-197.2,219.2-201.1,219-205.4,218.4z M-190.5,190.7l-1.8,16.4l-0.1,2.1c-0.1,1.9-0.6,3.3-1.2,4.2c-0.6,0.9-1.8,1.8-3.6,2.8
				c3.1,0.4,6.1,0.6,8.9,0.6c2.5,0,4.6-0.3,6-1c1.3-0.7,2.8-2.1,4.2-4c1.9-2.8,2.8-6,2.8-9.4c0-7.7-4.8-11.5-14.3-11.5h-0.9V190.7z"
				/>
			<path class="st9" d="M-165.2,202.1l-3.6,3.4c-0.3-1.2-0.6-2.2-0.6-3.3c0-4,1.6-7.3,5.1-9.8c2.5-1.8,6-2.7,10.6-2.7h7.1
				c2.7,0,5.5-0.1,8.3-0.3l-1.8,4.5l-0.3,0.7c-0.3,0.9-0.9,1.3-1.3,1.3c-0.1,0-0.1,0-0.3,0c0.1-0.7,0.3-1.3,0.3-1.8
				c0-0.9-0.4-1.5-1.5-1.8c-1-0.3-3.6-0.3-7.6-0.3h-2.1l-1.2,10.6h4.3c2.5,0,4.6-0.1,6.5-0.3c-1.6,1.9-3.3,3-5.1,3
				c-0.9,0-2.2,0-4-0.1c-0.7,0-1.2,0-1.5,0h-0.6l-0.1,1.9c-0.3,2.7-0.7,4.8-1.5,5.8c-0.6,1.2-1.9,2.4-3.9,3.4l4.8,0.3l1.9,0.1
				c1.3,0.1,3,0.1,4.9,0.1c3.3,0,6-1,8-3.1c0.3,0.3,0.3,0.6,0.3,0.7c0,0.4-0.7,1.2-2.4,2.5c-2.2,1.8-4.8,2.8-7.4,2.8
				c-2.5,0-6.1-0.1-10.7-0.6l-8.2-0.7c-0.3,0-1.2-0.1-3-0.1l4-3c1.5,0.3,3.1,0.4,5.2,0.6c1.5-0.6,2.4-1.3,2.8-2.4
				c0.4-1,0.9-3.1,1.2-6.1l1.6-15.5h-0.7c-2.8,0-5.1,0.6-6.5,1.8c-1.5,1.2-2.4,2.7-2.4,4.8C-166.3,199.8-165.8,200.9-165.2,202.1z"
				/>
			<path class="st9" d="M-139.6,218.4l3.7-2.8c1.2,0.1,2.1,0.3,2.8,0.3c1.6-0.6,2.8-1.8,3.6-3.3c0.7-1.5,1-4,1-7.1l0.1-3.4
				c0-4.3,1.5-7.7,4.5-10.3c2.5-2.1,5.1-3.1,7.9-3.1c1.2,0,2.4,0.3,3.6,0.7l-3.3,3.1c-1.3-0.9-2.7-1.3-3.9-1.3
				c-3.3,0-4.9,2.7-4.9,7.9l-0.1,3c0,4.2-0.4,7.1-1.2,9.1c-0.7,1.9-2.2,3.4-4.5,4.8l4.5,0.3l1.9,0.1l2.4,0.1c0.6,0,1.3,0,2.1,0
				c3.6,0,6.4-1,8.5-3.1c0.3,0.3,0.3,0.4,0.3,0.6c0,0.4-0.7,1.3-2.1,2.5c-2.4,1.9-4.9,3-7.7,3c-1.2,0-2.5,0-4.2-0.1l-6.5-0.4
				C-134.3,219-137.3,218.7-139.6,218.4z"/>
			<path class="st9" d="M-91.7,202l-3.6,3.4c-0.3-1.2-0.4-2.2-0.4-3.4c0-3.6,1.3-6.5,4-8.9c2.7-2.4,6.1-3.6,10.3-3.6
				c0.7,0,1.3,0,1.8,0.1c0.3,0,0.6,0,0.7,0h0.3c0,0.4,0,0.7,0,0.9c0,2.2,1,5.8,3,10.9l1,2.5c0.1,0.3,0.3,0.9,0.6,1.8l0.7,2.2
				c0.4,1.2,0.7,2.4,1.2,3.6l1.2-1.9c1.2-2.1,2.4-4,3.4-5.7l2.1-3.7l1.6-3.1l1.9-3.7c0.1-0.3,0.6-1,1-2.1l4.2-2.7
				c-0.9,5.4-1.3,9.8-1.3,13.1l-0.3,7.1v2.7c0,2.2,0.1,3.7,0.4,4.5c0.3,0.7,0.9,1,1.9,1c1,0,1.9-0.1,2.8-0.4
				c0.1,0.1,0.1,0.3,0.1,0.4c0,0.4-0.4,0.9-1.5,1l-1.2,0.3l-6.3,1.2c0-1.3-0.1-2.7-0.1-3.7c0-7.4,0.3-14,1-19.8
				c-1.9,2.8-3.6,5.2-4.5,7l-1.3,2.2c-1.8,3.1-3.3,6.1-4.3,8.9l-3.1,3.3c-0.1-2.7-1.3-6.5-3.3-11.6l-0.9-2.2
				c-0.1-0.3-0.4-0.9-0.7-1.9c-0.9-1.9-1.5-3.9-1.8-5.8l-1.8,10.7c-0.4,3.3-1,5.5-1.6,6.5c-0.6,1.2-1.5,2.1-3,2.8l5.5,0.4l-2.8,2.5
				l-9.2-0.4l2.8-2.7l2.5,0.1c0.9-0.7,1.6-1.6,2.1-2.7c0.4-1,0.9-3.1,1.5-6.3l2.7-15.3h-1c-6.1,0-9.1,1.9-9.1,6
				C-92.8,199.6-92.5,200.8-91.7,202z"/>
			<path class="st9" d="M-47.2,202.1l-3.4,3.3c-0.6-1.5-0.9-3.1-0.9-4.5c0-3.6,1.5-6.5,4.6-8.8c2.7-1.8,7.1-2.8,13.4-2.8
				c1,0,2.1,0,2.8,0c2.2,0.1,3.4,0.1,3.4,0.1h1.5c-1.2,1.8-1.6,5.4-1.6,10.7v1.2l0.1,2.5c0,3,0.3,6.1,1,9.2c0.3,1.2,0.6,1.9,0.9,2.4
				c0.3,0.4,0.7,0.6,1.5,0.6c0.7,0,1.6-0.3,2.5-0.7c0.1,0.3,0.1,0.4,0.1,0.6c0,0.3-0.3,0.7-0.9,0.9l-1,0.4l-5.4,2.4
				c-1.2-3.7-1.9-7.6-2.2-11.6l-1.6,1.2h-7.3c-1.3,3.4-3.1,5.8-5.5,7.3l4.5,0.1l-2.4,2.5l-8.6-0.3l2.8-2.7l2.2,0.1
				c1-0.7,1.8-1.8,2.5-3.1c0.7-1.3,1.8-3.9,3.1-7.6l0.6-1.8c1.3-3.6,2.7-6.3,3.9-7.9c1.2-1.6,2.8-3,4.9-4.2
				c-2.2-0.4-4.6-0.6-7.1-0.6c-6.4,0-9.7,2.2-9.7,6.5C-48.3,199.5-48,200.8-47.2,202.1z M-30.6,207c-0.1-2.5-0.3-4.6-0.3-6.1
				c0-0.7,0-1.5,0-1.9l0.1-2.5c0.1-1.8,0.3-3,0.4-4c-2.8,1.8-5.2,5.4-7,10.7c-0.6,1.5-0.9,2.4-0.9,2.7l-0.4,1.2H-30.6z"/>
			<path class="st9" d="M2.8,204.2c0.3,0.6,0.4,0.9,0.6,1.2c2.4,4.5,4,7.4,4.9,8.8c1,1.3,1.9,2.1,2.7,2.2c1.3,0,2.4-0.9,3.1-3
				c0.4,0.3,0.7,0.6,0.7,0.9c0,0.9-0.6,2.1-1.8,3.4c-1.2,1.3-2.2,2.1-3.1,2.1c-1.2,0-2.8-1.3-4.8-4c-1.9-2.7-3.9-6.1-5.8-10.4
				c-0.7,0-1.5,0.1-2.1,0.1s-1.2,0-2.1-0.1l-0.1,1.5l-0.3,2.5c-0.3,2.1-0.7,3.6-1.3,4.5s-1.9,1.8-3.7,2.7l5.2,0.3l-2.7,2.5l-9.4-0.4
				l2.8-2.7l2.4,0.3c1.8-1.2,2.8-3.4,3.3-6.8l0.3-2.1l1.8-16.5c-6.5,1.2-10,3.7-10,7.4c0,1.5,0.3,2.8,0.9,4l-3.4,3
				c-0.3-1.2-0.4-2.2-0.4-3.4c0-3.9,1.6-7.1,5.1-9.7c3.4-2.5,7.7-3.7,12.9-3.7c7.1,0,10.7,2.2,10.7,6.8C9.2,199,7.1,201.8,2.8,204.2
				z M-3,190.8l-1.3,12.6c1.2,0.1,2.2,0.3,3.1,0.3s1.9-0.1,3-0.3c2.7-1.9,3.9-4.2,3.9-6.7C5.6,192.9,2.8,190.8-3,190.8z"/>
			<path class="st9" d="M19.7,202.1l-3.6,3.4c-0.3-1.2-0.6-2.2-0.6-3.3c0-4,1.6-7.3,5.1-9.8c2.5-1.8,6-2.7,10.6-2.7h7.1
				c2.7,0,5.5-0.1,8.3-0.3l-1.8,4.5l-0.3,0.7c-0.3,0.9-0.9,1.3-1.3,1.3c-0.1,0-0.1,0-0.3,0c0.1-0.7,0.3-1.3,0.3-1.8
				c0-0.9-0.4-1.5-1.5-1.8c-1-0.3-3.6-0.3-7.6-0.3h-2.1l-1.2,10.6h4.3c2.5,0,4.6-0.1,6.5-0.3c-1.6,1.9-3.3,3-5.1,3
				c-0.9,0-2.2,0-4-0.1c-0.7,0-1.2,0-1.5,0h-0.6l-0.1,1.9c-0.3,2.7-0.7,4.8-1.5,5.8c-0.6,1.2-1.9,2.4-3.9,3.4l4.8,0.3l1.9,0.1
				c1.3,0.1,3,0.1,4.9,0.1c3.3,0,6-1,8-3.1c0.3,0.3,0.3,0.6,0.3,0.7c0,0.4-0.7,1.2-2.4,2.5c-2.2,1.8-4.8,2.8-7.4,2.8
				c-2.5,0-6.1-0.1-10.7-0.6l-8.2-0.7c-0.3,0-1.2-0.1-3-0.1l4-3c1.5,0.3,3.1,0.4,5.2,0.6c1.5-0.6,2.4-1.3,2.8-2.4
				c0.4-1,0.9-3.1,1.2-6.1l1.6-15.5h-0.7c-2.8,0-5.1,0.6-6.5,1.8c-1.5,1.2-2.4,2.7-2.4,4.8C18.9,199.8,19.1,200.9,19.7,202.1z"/>
		</g>
		<g transform="matrix(0.909714, 0, 0, 0.909714, 365.112, 397.024)">
			<path class="st9" d="M-203-147.7l-3.6,3.4c-0.3-1.2-0.4-2.2-0.4-3.4c0-3.7,1.3-6.7,4.2-9.1s6.5-3.4,11.2-3.4h1.8
				c-0.6,3.3-1,5.5-1.2,6.7l-1.2,10.7l-0.3,2.4c-0.3,2.1-0.7,3.6-1.3,4.5s-1.9,1.8-3.7,2.7l6.3,0.3l-2.7,2.5l-10.6-0.4l2.8-2.7
				l2.4,0.3c1.8-1.2,2.8-3.4,3.3-6.8l0.3-2.1l1.6-15.3h-0.7c-6.1,0-9.1,1.9-9.1,6C-204.1-150.1-203.6-148.9-203-147.7z"/>
			<path class="st9" d="M-151.4-138.4c0.3,0.1,0.4,0.4,0.4,0.7c0,0.9-0.9,2.2-2.7,3.7c-3,2.7-6.4,4-10.1,4c-3.1,0-5.5-1-7.3-3.3
				s-2.7-5.2-2.7-8.9c0-5.4,1.6-9.8,5.1-13.4c3.4-3.6,7.6-5.4,12.6-5.4c2.5,0,5.2,0.4,8,1.5l-1.5,3.3l-0.4,0.9c-0.3,0.7-0.7,1-1.3,1
				c-0.1,0-0.3,0-0.4,0c0.1-0.4,0.3-0.7,0.3-1c0-1-0.6-1.8-1.9-2.5s-2.8-1-4.6-1c-3.6,0-6.4,1.3-8.6,4.2s-3.3,6.4-3.3,10.9
				c0,3.4,0.7,6.3,2.4,8.3s3.6,3.1,6.3,3.1c1.9,0,3.7-0.6,5.7-1.6C-153.6-134.9-152.3-136.7-151.4-138.4z"/>
			<path class="st9" d="M-142.3-147.6l-3.6,3.4c-0.3-1.2-0.6-2.2-0.6-3.3c0-4,1.6-7.3,5.1-9.8c2.5-1.8,6-2.7,10.6-2.7h7.1
				c2.7,0,5.5-0.1,8.3-0.3l-1.8,4.5l-0.3,0.7c-0.3,0.9-0.9,1.3-1.3,1.3c-0.1,0-0.1,0-0.3,0c0.1-0.7,0.3-1.3,0.3-1.8
				c0-0.9-0.4-1.5-1.5-1.8c-1-0.3-3.6-0.3-7.6-0.3h-2.1l-1.2,10.6h4.3c2.5,0,4.6-0.1,6.5-0.3c-1.6,1.9-3.3,3-5.1,3
				c-0.9,0-2.2,0-4-0.1c-0.7,0-1.2,0-1.5,0h-0.6l-0.1,1.9c-0.3,2.7-0.7,4.8-1.5,5.8c-0.7,1-1.9,2.4-3.9,3.4l4.8,0.3l1.9,0.1
				c1.3,0.1,3,0.1,4.9,0.1c3.3,0,6-1,8-3.1c0.3,0.3,0.3,0.6,0.3,0.7c0,0.4-0.7,1.2-2.4,2.5c-2.2,1.8-4.8,2.8-7.4,2.8
				c-2.5,0-6.1-0.1-10.7-0.6l-8.2-0.7c-0.3,0-1.2,0-3-0.1l4-3c1.5,0.3,3.1,0.4,5.2,0.6c1.5-0.6,2.4-1.3,2.8-2.4
				c0.4-1,0.9-3.1,1.2-6.1l1.6-15.5h-0.7c-2.8,0-5.1,0.6-6.5,1.8c-1.5,1.2-2.4,2.7-2.4,4.8C-143.4-150-142.9-148.8-142.3-147.6z"/>
			<path class="st9" d="M-91-138.4c0.3,0.1,0.4,0.4,0.4,0.7c0,0.9-0.9,2.2-2.7,3.7c-3,2.7-6.4,4-10.1,4c-3.1,0-5.5-1-7.3-3.3
				s-2.7-5.2-2.7-8.9c0-5.4,1.6-9.8,5.1-13.4c3.4-3.6,7.6-5.4,12.6-5.4c2.5,0,5.2,0.4,8,1.5l-1.5,3.3l-0.4,0.9c-0.3,0.7-0.7,1-1.3,1
				c-0.1,0-0.3,0-0.4,0c0.1-0.4,0.3-0.7,0.3-1c0-1-0.6-1.8-1.9-2.5s-2.8-1-4.6-1c-3.6,0-6.4,1.3-8.6,4.2s-3.3,6.4-3.3,10.9
				c0,3.4,0.7,6.3,2.4,8.3c1.6,2.1,3.6,3.1,6.3,3.1c1.9,0,3.7-0.6,5.7-1.6C-93.2-134.9-91.9-136.7-91-138.4z"/>
			<path class="st9" d="M-63.1-138.4c0.3,0.1,0.4,0.4,0.4,0.7c0,0.9-0.9,2.2-2.7,3.7c-3,2.7-6.4,4-10.1,4c-3.1,0-5.5-1-7.3-3.3
				s-2.7-5.2-2.7-8.9c0-5.4,1.6-9.8,5.1-13.4c3.4-3.6,7.6-5.4,12.6-5.4c2.5,0,5.2,0.4,8,1.5l-1.5,3.3l-0.4,0.9c-0.3,0.7-0.7,1-1.3,1
				c-0.1,0-0.3,0-0.4,0c0.1-0.4,0.3-0.7,0.3-1c0-1-0.6-1.8-1.9-2.5s-2.8-1-4.6-1c-3.6,0-6.4,1.3-8.6,4.2s-3.3,6.4-3.3,10.9
				c0,3.4,0.7,6.3,2.4,8.3c1.5,2.1,3.6,3.1,6.3,3.1c1.9,0,3.7-0.6,5.7-1.6C-65.4-134.9-64-136.7-63.1-138.4z"/>
			<path class="st9" d="M-41.4-160.1c-0.6,3.3-1,5.5-1.2,6.7l-0.7,6.1h12.2l0.1-0.7c0.9-8.5,2.7-14.1,5.1-17.3
				c3-3.7,6.3-5.7,9.8-5.7c1.3,0,2.5,0.3,3.7,0.7l-3.3,3.1c-1.2-0.9-2.4-1.2-3.6-1.2c-2.5,0-4.2,1.2-5.1,3.7
				c-0.9,2.5-1.9,7.9-2.8,16.5l-0.3,3c-0.4,3.9-0.6,6.8-0.6,8.9c0,1.2,0.6,1.8,1.6,1.8c0.7,0,1.8-0.3,3-1c0,0.3,0.1,0.4,0.1,0.6
				c0,0.4-0.4,0.9-1.2,1.2l-1.2,0.6l-6.4,3c0-2.7,0.3-7.3,1-13.7l0.1-0.7h-12.2l-0.1,1.9l-0.3,2.4c-0.3,2.1-0.7,3.6-1.3,4.5
				s-1.9,1.8-3.7,2.7l5.2,0.3l-2.7,2.5l-9.4-0.4l2.8-2.7l2.4,0.3c1.2-0.7,1.9-1.6,2.4-2.8c0.4-1.2,0.7-3.1,1.2-6.3l1.6-15.3h-0.7
				c-6.1,0-9.1,1.9-9.1,6c0,1.2,0.3,2.5,1,3.7l-3.6,3.4c-0.3-1.2-0.4-2.2-0.4-3.4c0-3.7,1.3-6.7,4.2-9.1c2.8-2.4,6.5-3.4,11.2-3.4h1
				V-160.1z"/>
			<path class="st9" d="M-16.4-147.7l-3.6,3.4c-0.3-1.2-0.4-2.2-0.4-3.4c0-3.7,1.3-6.7,4.2-9.1c2.8-2.2,6.5-3.4,11.2-3.4h1.8
				c-0.6,3.3-1,5.5-1.2,6.7l-1.2,10.7l-0.3,2.4c-0.3,2.1-0.7,3.6-1.3,4.5s-1.9,1.8-3.7,2.7l6.3,0.3l-2.7,2.5l-10.6-0.4l2.8-2.7
				l2.4,0.3c1.8-1.2,2.8-3.4,3.3-6.8l0.3-2.1l1.6-15.3h-0.7c-6.1,0-9.1,1.9-9.1,6C-17.5-150.1-17-148.9-16.4-147.7z"/>
			<path class="st9" d="M4-147.7l-3.6,3.4c-0.3-1.2-0.6-2.2-0.6-3.4c0-3.6,1.3-6.5,4-8.9c2.7-2.4,6.1-3.6,10.1-3.6c0.6,0,1,0,1.6,0
				s0.9,0,1,0h0.3c0,0.4-0.1,0.9-0.1,1c0,3,1.9,6.8,5.8,11.5l1.6,1.9l1.5,1.8c1.5,1.8,2.7,3.4,3.6,5.1l1.5-11.9
				c0.9-7.3,2.5-12.4,5.1-15.2c2.8-3.3,6-4.9,9.2-4.9c1.3,0,2.5,0.3,3.7,0.7l-3.3,3.3c-1.3-0.7-2.5-1.2-3.6-1.2c-2.2,0-4,1-5.2,3.1
				s-2.1,5.7-2.7,10.9l-2.2,18.5L29-130c-0.6-2.7-1.3-4.8-2.1-6.1c-0.7-1.3-2.2-3.4-4.5-6.1l-1.6-2.1c-2.5-3.1-4.5-6-5.5-8.3l-1,9.8
				l-0.3,2.4c-0.3,1.9-0.6,3.4-1.2,4.3s-1.5,1.9-3.1,3.1l4.8,0.4l-2.5,2.5l-9.5-0.4l2.8-2.7l2.4,0.1c1-0.7,1.9-1.6,2.2-2.5
				c0.3-0.9,0.7-2.5,1-4.6l0.1-1.9l1.6-15h-1c-6.1,0-9.1,1.9-9.1,6C2.9-150.1,3.2-148.9,4-147.7z"/>
			<path class="st9" d="M43.4-147.7l-3.6,3.4c-0.3-1.2-0.4-2.2-0.4-3.4c0-3.7,1.3-6.7,4.2-9.1c2.8-2.2,6.5-3.4,11.2-3.4h1.8
				c-0.6,3.3-1,5.5-1.2,6.7l-1.2,10.7l-0.3,2.4c-0.3,2.1-0.7,3.6-1.3,4.5s-1.9,1.8-3.7,2.7L55-133l-2.7,2.5l-10.6-0.4l2.8-2.7
				l2.4,0.3c1.8-1.2,2.8-3.4,3.3-6.8l0.3-2.1l1.6-15.3h-0.7c-6.1,0-9.1,1.9-9.1,6C42.4-150.1,42.7-148.9,43.4-147.7z"/>
		</g>
	</g>
</g>
</svg>
