<?xml version="1.0" encoding="utf-8"?>
<!-- Generator: Adobe Illustrator 20.1.0, SVG Export Plug-In . SVG Version: 6.00 Build 0)  -->
<svg version="1.1" id="Livello_1" xmlns="http://www.w3.org/2000/svg" xmlns:xlink="http://www.w3.org/1999/xlink" x="0px" y="0px"
	 viewBox="0 0 400 400" style="enable-background:new 0 0 400 400;" xml:space="preserve">
<style type="text/css">
	.st0{fill:#FFFFFF;}
	.st1{fill:#2F4B95;}
	.st2{fill:#E22A24;}
	.st3{fill:none;stroke:#E22824;stroke-width:2.5;stroke-miterlimit:10;}
	.st4{fill:none;stroke:#E32B24;stroke-width:0.75;stroke-miterlimit:10;}
	.st5{fill:none;stroke:#010202;stroke-miterlimit:10;}
	.st6{fill:none;stroke:#010202;stroke-width:0.75;stroke-miterlimit:10;}
	.st7{fill:none;stroke:#010202;stroke-width:0.4;stroke-miterlimit:10;}
	.st8{fill:#010202;}
</style>
<circle id="LIVELLO_0_-_CERCHIO_BIANCO" class="st0" cx="199.9" cy="200.7" r="154.7"/>
<g id="LIVELLO_-_1_CERCHIO_BLU" transform="matrix(0.909714, 0, 0, 0.909714, 365.112, 397.024)">
	<path class="st1" d="M-181.6-415.5c-109.4,0-198.1,88.7-198.1,198.2s88.8,198.2,198.1,198.2c109.4,0,198.1-88.7,198.1-198.2
		C16.6-326.7-72.1-415.5-181.6-415.5z M-181.6-46.2c-93.9,0-170.1-76.2-170.1-170.2c0-93.9,76.2-170.2,170.1-170.2
		s170.1,76.2,170.1,170.2C-11.4-122.5-87.5-46.2-181.6-46.2z"/>
</g>
<g id="LIVELLO_2_-_TACCHE_MIRA" transform="matrix(0.909714, 0, 0, 0.909714, 365.112, 397.024)">
	<rect x="-189.6" y="-434.2" class="st2" width="18.2" height="65.9"/>
	<rect x="-398.4" y="-234.6" class="st2" width="65.9" height="18.2"/>
	<rect x="-30" y="-233.6" class="st2" width="65.9" height="18.2"/>
	<rect x="-189.6" y="-65.9" class="st2" width="18.2" height="65.9"/>
</g>
<g id="LIVELLO_3_-_CROCINO_MIRA" transform="matrix(0.909714, 0, 0, 0.909714, 365.112, 397.024)">
	<line class="st3" x1="-180.5" y1="-215.3" x2="-180.5" y2="-231.4"/>
	<line class="st3" x1="-172.5" y1="-223.6" x2="-188.6" y2="-223.6"/>
</g>
<g id="LIVELLO_4_-_CROCINO_OLOGRAFICO" transform="matrix(0.909714, 0, 0, 0.909714, 365.112, 397.024)">
	<line class="st4" x1="-180.5" y1="-65.9" x2="-180.5" y2="-368.2"/>
	<line class="st4" x1="-332.4" y1="-223.5" x2="-30" y2="-223.5"/>
</g>
<g id="LIVELLO_-_5_RICCIOLA">
	<path class="st5" d="M87.7,207.3c0,0,0-4.3,3.4-6.6l3.4-5l3.1-4.8c0,0,9.4-13.9,11.1-12.6c0,0,2.5-4.5,18.3-14.4
		c0,0,15.2-12.8,48-17.9c0,0,0.8-2.1,13.4-3.5l7.1-3.8c0,0,12.4-10.8,32.5-13.9l-3.8,5c0,0,0.8,2.2-1.3,2.8
		c-2.1,0.5,1.8,1.3,1.8,1.3v5.6c0,0-2.5,2.8,0.5,2.1c0,0,0.8,5.3,4.5,5c3.8-0.3-2.5,4.8,9.1,7.1c0,0,41.2,10.8,45.7,60
		c0,0,11.1,48.6-17.3,81.1c0,0,8.9-48.4,4.8-47.8l-5.6-2.2l-0.8-7.1c0,0-29-13.1-39.9-16.6c0,0-12.7,0.5-13.9-1.3
		c0,0,26.2-15.3,62.4,3.2c0,0-0.8-9.3-5.8-18.4c0,0-16-18.1-52.8-3.1c0,0-27.1,11.6-34.7,14.6c0,0-15.7,6-37.6,7.1l-13.4,0.8
		l-9.9,1.3l-16.3,4.5c0,0-8.9,1.8-12.1-1l-2.3-2.1c0,0-0.5-8.6,2.3-11.3c0,0-8.6,0.5-6.9-3.5C86.4,207.7,87.7,207.3,87.7,207.3z"/>
	<path class="st6" d="M144.2,175l5.7,1c0,0,16.9,15.5,8.9,23.9"/>
	<path class="st6" d="M156.1,209.1c-1.6,5.8-12.9,14.1-12.9,14.1"/>
	<path class="st5" d="M163.4,208.3c1.1-0.5,1.1-2.1,1.1-2.1l-2.3-0.2c0.3-1-0.2-3.4-0.2-3.4l-1.1-0.2l1.3-2.4c0,0,0.5-5.5-1.3-4
		c0,0,6-2.6,8-1.9c0,0,15-1.5,22.8,0.8c0,0-12.9,11.6-16.7,10.3l0.2,1.1c0,0-9.5,4.8-10.7,3.4l-8.4-1.6L163.4,208.3z"/>
	<path class="st7" d="M162.4,198.3c0,0,5.3-2.1,19.4-4.5"/>
	<path class="st7" d="M162.3,200.1c0,0,18.9-5.2,25.8-1.9"/>
	<path class="st7" d="M162.1,202.6c0,0,15.9-2.4,19.6,0"/>
	<path class="st7" d="M185.5,200.1c0,0-11-2.7-23.7,0.8"/>
	<path class="st7" d="M162.4,204.1c0,0,12.6,0.1,12.7,1.2"/>
	<path class="st7" d="M189.8,145.2c0,0,19.1-2.2,44.9,9.1"/>
	<path class="st7" d="M198.4,142.7c0,0,10.4-10.3,25.7-12.8"/>
	<path class="st7" d="M201,142.7c0,0,12.7-8.9,21.8-10.2"/>
	<path class="st7" d="M205.3,142.7c0,0,11.1-8.1,19.3-8.9"/>
	<path class="st7" d="M217,148.2c0,0,2.9-3.1,9-3.9"/>
	<path class="st7" d="M211.2,146.3c0,0,1.4-3,12.8-4.7"/>
	<path class="st7" d="M208.4,143.9c0,0,12-7.6,16.2-6.2"/>
	<path class="st7" d="M217.6,217c0,0,30-3.9,44.5,1.2"/>
	<path class="st7" d="M268.7,286c0,0,7.3-11,9.4-18.9"/>
	<path class="st7" d="M257.2,233.7c0,0,7.5-2.2,8.1-3.2"/>
	<path class="st7" d="M259.6,233.7c0,0,4.5-0.5,8.1-3.2"/>
	<path class="st7" d="M261.1,235.4c0,0,8.1-3.7,8.6-5"/>
	<path class="st7" d="M268.7,245.5c0,0,10.2-7.5,9.4-10"/>
	<path class="st7" d="M263.7,236.6c0,0,4.3-1.6,6.1-3.6"/>
	<path class="st7" d="M273.5,246.6c0,0,2.9-1.5,3.4-3.1"/>
	<path class="st7" d="M273.1,249.5c0,0,3.4-1.8,5.1-4.5"/>
	<path class="st7" d="M273.5,254.1c0,0,5.5-9.9,7-9.1"/>
	<path class="st7" d="M270,278.7c0,0,4.5-4.5,5.7-12.7"/>
	<path class="st7" d="M271.3,269.7c0,0,6-8.7,6.9-12.3"/>
	<path class="st7" d="M273.1,261.9c0,0,4.8-6.1,7.3-12.4"/>
	<path class="st7" d="M253.4,232.1c0,0,3.6-2.4,8.7-2.6"/>
	<path class="st7" d="M249.7,230.4c0,0,4.3-2.3,9.9-3.1"/>
	<path class="st7" d="M244.9,227.4c0,0,7.7-3.1,16.3-3.1"/>
	<path class="st7" d="M239.9,225.9c0,0,8.2-2.9,21.3-3.5"/>
	<path class="st7" d="M225.9,220.9c0,0,0-2.4,11.7-2.6"/>
	<path class="st7" d="M229.9,222.3c0,0,11.9-4.1,15-2.8"/>
	<path class="st7" d="M234.8,223.2c0,0,14.9-3.4,15.8-2.3"/>
	<path class="st7" d="M246.2,228.9c0,0,11.6-3.8,13.4-3.1"/>
	<path class="st7" d="M220.2,220.9c0,0,6.6-3.8,13.4-4"/>
	<path class="st5" d="M215.7,201.4c0,0,10.6,6.5,12.1,5.8c0,0,1-2.8-0.8-3.1c0,0-2.7-1.8,0-2.5l1.1-1.6h1.9l1.6-0.8
		c0,0,18.7-5.3,38.1,7.8"/>
	<path class="st7" d="M220.2,202.1c0,0,3.9,0.8,4.7,1.9"/>
	<path class="st7" d="M222.6,200.9c0,0,1.6-0.3,2.3,0.6"/>
	<path class="st7" d="M227,197.6c0,0,3.6,1,3,2.4"/>
	<path class="st7" d="M230,196.7c0,0,4.5,1.9,3.1,2.1"/>
	<path class="st7" d="M234.8,196c0,0,2.8,2.1,1.9,2.2"/>
	<path class="st7" d="M237.5,195.7c0,0,3.5,1.4,2.5,1.9"/>
	<path class="st7" d="M239.9,195.5c0,0,4.2,2.1,3.7,2.4"/>
	<path class="st7" d="M243.7,195.1c0,0,5.6,3.5,4.2,3.4"/>
	<path class="st7" d="M248.2,195.7c0,0,2.7,1.9,2.4,3.1"/>
	<path class="st7" d="M250.6,196c0,0,2.1,1.6,2.3,3.4"/>
	<path class="st7" d="M253.4,196.8c0,0,2.8,1.5,1.6,3.2"/>
	<path class="st7" d="M255.8,197.2c0,0,4.8,2.9,4.5,4.7"/>
	<path class="st5" d="M162.9,220.9c0,0,14.3,9.7,22.6,2.3l-2.1-0.8c0,0-0.5-4-2.5-6.2"/>
	<path class="st7" d="M169.7,220.6c0,0,6.3,4.7,14.1,3.7"/>
	<path class="st7" d="M183.5,222.3c0,0-7.6-0.6-8.2-2.5"/>
	<path class="st5" d="M152.6,178.7l14.6-4.7c0,0,12.1-4.3,22.6,2.4c0,0,10.2,1.5,25.9-0.6c0,0,48.2,1,59.4,35.6"/>
	<path class="st6" d="M87.7,207.3l3.9,4.8h8c0,0,9.1,1.8,14.5,6c0,0,0.5-3.2,1.9-2.1c0,0-8.1-7.3-8.2-6l-7.8-1.9H88.4"/>
	<path class="st6" d="M91.5,217.6c0,0,15.2-0.8,22.6,2.2c0,0-6.6-4.8-22.6-4.5"/>
	<path class="st6" d="M107.8,218.2l-6.9,3.8c0,0-5.1,4.3-7.1,1"/>
	<path class="st6" d="M93,219.8c0,0-2.9,3.5,0,3.2l-3.1,1.2c0,0-1,2.3,1.6,2.1c0,0-0.5,2.1,6.5,0l13.9-5.2c0,0-0.8,3.7,8.4,1.9
		c0.3-0.1,0.5-0.1,1-0.2"/>
	<path class="st6" d="M120.2,223.3c0,0,11.8,0.2,13.1-1.9"/>
	<path class="st6" d="M109.6,209.1c0,0,8.1,0.5,12.4-6.4"/>
	<path class="st6" d="M117.4,208.1c0,0,3.6,1,3.4,1.9c0,0,0.3,8.9-0.5,9.7c0,0,3.8-0.8,3-14.6"/>
	<path class="st6" d="M122.5,222.3l3.4-4.1c0,0,3.1,3.2,8.6-9.2"/>
	<path class="st6" d="M149.8,179.4c0,0,7.1,10.8,7.3,11c1.9,4.8,2.4,10.7-1.9,15.8c0,0-4.9-0.8-6.1-4.2c0,0,2.5,0.3,3.6-4
		c0,0,1.6-1.9,1.1-3l-1.1,1v-2.3c0,0,3.4-1,3.9-4.1"/>
	<path class="st6" d="M135.8,176.9c-4.7,0.8-10.3,9.3-10.3,9.3s2.5,5.5-1.6,8.9"/>
	<path class="st6" d="M121.9,197c0,0-8,4-8.9-3.4"/>
	<path class="st6" d="M121.9,199.1c0,0,3.1-3.6,4-2.1"/>
	<ellipse class="st6" cx="120.2" cy="192.3" rx="2.1" ry="2.1"/>
	<ellipse class="st6" cx="120.2" cy="192.3" rx="3.7" ry="3.7"/>
</g>
<g id="LIVELLO_6_-_DEL_MARE" transform="matrix(0.909714, 0, 0, 0.909714, 365.112, 397.024)">
	<path class="st8" d="M-270.6-84.6l2.1-2.3c0.5,0.2,1.2,0.4,2.1,0.5c0.7-0.4,1.2-1,1.5-1.7c0.3-0.7,0.5-2.1,0.7-4.1l1.2-11.1
		c-4.5,0.5-6.7,2.1-6.7,4.9c0,0.8,0.2,1.6,0.6,2.5l-2.5,2.3c-0.2-0.5-0.3-1.2-0.3-2.1c0-3,1.1-5.3,3.5-6.9c2.3-1.5,5.7-2.3,10.1-2.3
		c7.3,0,10.8,2.5,10.8,7.5c0,3-1,5.8-3.1,8.4c-2.7,3.4-6.9,5-12.4,5C-265-84-267.7-84.2-270.6-84.6z M-260.4-103.6l-1.2,11.3
		l-0.1,1.4c-0.1,1.3-0.4,2.3-0.8,2.9c-0.4,0.6-1.2,1.2-2.5,1.9c2.1,0.3,4.2,0.4,6.1,0.4c1.7,0,3.2-0.2,4.1-0.7
		c0.9-0.5,1.9-1.4,2.9-2.7c1.3-1.9,1.9-4.1,1.9-6.4c0-5.3-3.3-7.9-9.8-7.9h-0.6V-103.6L-260.4-103.6z"/>
	<path class="st8" d="M-243-95.8l-2.5,2.3c-0.2-0.8-0.4-1.5-0.4-2.3c0-2.7,1.1-5,3.5-6.7c1.7-1.2,4.1-1.9,7.3-1.9h4.9
		c1.9,0,3.8-0.1,5.7-0.2l-1.2,3.1l-0.2,0.5c-0.2,0.6-0.6,0.9-0.9,0.9c-0.1,0-0.1,0-0.2,0c0.1-0.5,0.2-0.9,0.2-1.2c0-0.6-0.3-1-1-1.2
		c-0.7-0.2-2.5-0.2-5.2-0.2h-1.4l-0.8,7.3h3c1.7,0,3.2-0.1,4.5-0.2c-1.1,1.3-2.3,2.1-3.5,2.1c-0.6,0-1.5,0-2.7-0.1c-0.5,0-0.8,0-1,0
		h-0.4l-0.1,1.3c-0.2,1.9-0.5,3.3-1,4c-0.4,0.8-1.3,1.6-2.7,2.3l3.3,0.2l1.3,0.1c0.9,0.1,2.1,0.1,3.4,0.1c2.3,0,4.1-0.7,5.5-2.1
		c0.2,0.2,0.2,0.4,0.2,0.5c0,0.3-0.5,0.8-1.6,1.7c-1.5,1.2-3.3,1.9-5.1,1.9c-1.7,0-4.2-0.1-7.3-0.4l-5.6-0.5c-0.2,0-0.8-0.1-2.1-0.1
		l2.7-2.1c1,0.2,2.1,0.3,3.6,0.4c1-0.4,1.6-0.9,1.9-1.6c0.3-0.7,0.6-2.1,0.8-4.2l1.1-10.6h-0.5c-1.9,0-3.5,0.4-4.5,1.2
		c-1,0.8-1.6,1.9-1.6,3.3C-243.8-97.3-243.4-96.6-243-95.8z"/>
	<path class="st8" d="M-225.5-84.6l2.5-1.9c0.8,0.1,1.4,0.2,1.9,0.2c1.1-0.4,1.9-1.2,2.5-2.3c0.5-1,0.7-2.7,0.7-4.9l0.1-2.3
		c0-3,1-5.3,3.1-7.1c1.7-1.4,3.5-2.1,5.4-2.1c0.8,0,1.6,0.2,2.5,0.5l-2.3,2.1c-0.9-0.6-1.9-0.9-2.7-0.9c-2.3,0-3.4,1.9-3.4,5.4
		l-0.1,2.1c0,2.9-0.3,4.9-0.8,6.2c-0.5,1.3-1.5,2.3-3.1,3.3l3.1,0.2l1.3,0.1l1.6,0.1c0.4,0,0.9,0,1.4,0c2.5,0,4.4-0.7,5.8-2.1
		c0.2,0.2,0.2,0.3,0.2,0.4c0,0.3-0.5,0.9-1.4,1.7c-1.6,1.3-3.4,2.1-5.3,2.1c-0.8,0-1.7,0-2.9-0.1l-4.5-0.3
		C-221.8-84.2-223.9-84.4-225.5-84.6z"/>
	<path class="st8" d="M-192.6-95.8l-2.5,2.3c-0.2-0.8-0.3-1.5-0.3-2.3c0-2.5,0.9-4.5,2.7-6.1c1.9-1.6,4.2-2.5,7.1-2.5
		c0.5,0,0.9,0,1.2,0.1c0.2,0,0.4,0,0.5,0h0.2c0,0.3,0,0.5,0,0.6c0,1.5,0.7,4,2.1,7.5l0.7,1.7c0.1,0.2,0.2,0.6,0.4,1.2l0.5,1.5
		c0.3,0.8,0.5,1.6,0.8,2.5l0.8-1.3c0.8-1.4,1.6-2.7,2.3-3.9l1.4-2.5l1.1-2.1l1.3-2.5c0.1-0.2,0.4-0.7,0.7-1.4l2.9-1.9
		c-0.6,3.7-0.9,6.7-0.9,9l-0.2,4.9v1.9c0,1.5,0.1,2.5,0.3,3.1c0.2,0.5,0.6,0.7,1.3,0.7s1.3-0.1,1.9-0.3c0.1,0.1,0.1,0.2,0.1,0.3
		c0,0.3-0.3,0.6-1,0.7l-0.8,0.2l-4.3,0.8c0-0.9-0.1-1.9-0.1-2.5c0-5.1,0.2-9.6,0.7-13.6c-1.3,1.9-2.5,3.6-3.1,4.8l-0.9,1.5
		c-1.2,2.1-2.3,4.2-3,6.1l-2.1,2.3c-0.1-1.9-0.9-4.5-2.3-8l-0.6-1.5c-0.1-0.2-0.3-0.6-0.5-1.3c-0.6-1.3-1-2.7-1.2-4l-1.2,7.3
		c-0.3,2.3-0.7,3.8-1.1,4.5c-0.4,0.8-1,1.4-2.1,1.9l3.8,0.3l-1.9,1.7l-6.3-0.3l1.9-1.9l1.7,0.1c0.6-0.5,1.1-1.1,1.4-1.9
		c0.3-0.7,0.6-2.1,1-4.3l1.9-10.5h-0.7c-4.2,0-6.2,1.3-6.2,4.1C-193.4-97.5-193.1-96.7-192.6-95.8z"/>
	<path class="st8" d="M-162.1-95.8l-2.3,2.3c-0.4-1-0.6-2.1-0.6-3.1c0-2.5,1-4.5,3.2-6c1.9-1.2,4.9-1.9,9.2-1.9c0.7,0,1.4,0,1.9,0
		c1.5,0.1,2.3,0.1,2.3,0.1h1c-0.8,1.2-1.1,3.7-1.1,7.3v0.8l0.1,1.7c0,2.1,0.2,4.2,0.7,6.3c0.2,0.8,0.4,1.3,0.6,1.6
		c0.2,0.3,0.5,0.4,1,0.4c0.5,0,1.1-0.2,1.7-0.5c0.1,0.2,0.1,0.3,0.1,0.4c0,0.2-0.2,0.5-0.6,0.6l-0.7,0.3l-3.7,1.6
		c-0.8-2.5-1.3-5.2-1.5-8l-1.1,0.8h-5c-0.9,2.3-2.1,4-3.8,5l3.1,0.1l-1.6,1.7l-5.9-0.2l1.9-1.9l1.5,0.1c0.7-0.5,1.2-1.2,1.7-2.1
		c0.5-0.9,1.2-2.7,2.1-5.2l0.4-1.2c0.9-2.5,1.9-4.3,2.7-5.4c0.8-1.1,1.9-2.1,3.4-2.9c-1.5-0.3-3.2-0.4-4.9-0.4
		c-4.4,0-6.7,1.5-6.7,4.5C-162.8-97.6-162.6-96.7-162.1-95.8z M-150.7-92.4c-0.1-1.7-0.2-3.2-0.2-4.2c0-0.5,0-1,0-1.3l0.1-1.7
		c0.1-1.2,0.2-2.1,0.3-2.7c-1.9,1.2-3.6,3.7-4.8,7.3c-0.4,1-0.6,1.6-0.6,1.9l-0.3,0.8L-150.7-92.4L-150.7-92.4z"/>
	<path class="st8" d="M-127.8-94.3c0.2,0.4,0.3,0.6,0.4,0.8c1.6,3.1,2.7,5.1,3.4,6c0.7,0.9,1.3,1.4,1.9,1.5c0.9,0,1.6-0.6,2.1-2.1
		c0.3,0.2,0.5,0.4,0.5,0.6c0,0.6-0.4,1.4-1.2,2.3c-0.8,0.9-1.5,1.4-2.1,1.4c-0.8,0-1.9-0.9-3.3-2.7c-1.3-1.9-2.7-4.2-4-7.1
		c-0.5,0-1,0.1-1.4,0.1s-0.8,0-1.4-0.1l-0.1,1l-0.2,1.7c-0.2,1.4-0.5,2.5-0.9,3.1s-1.3,1.2-2.5,1.9l3.6,0.2l-1.9,1.7l-6.4-0.3
		l1.9-1.9l1.6,0.2c1.2-0.8,1.9-2.3,2.3-4.7l0.2-1.4l1.2-11.3c-4.5,0.8-6.9,2.5-6.9,5.1c0,1,0.2,1.9,0.6,2.7l-2.3,2.1
		c-0.2-0.8-0.3-1.5-0.3-2.3c0-2.7,1.1-4.9,3.5-6.7c2.3-1.7,5.3-2.5,8.9-2.5c4.9,0,7.3,1.5,7.3,4.7C-123.4-97.9-124.8-96-127.8-94.3z
		 M-131.7-103.5l-0.9,8.6c0.8,0.1,1.5,0.2,2.1,0.2c0.6,0,1.3-0.1,2.1-0.2c1.9-1.3,2.7-2.9,2.7-4.6
		C-125.8-102.1-127.8-103.5-131.7-103.5z"/>
	<path class="st8" d="M-116.2-95.8l-2.5,2.3c-0.2-0.8-0.4-1.5-0.4-2.3c0-2.7,1.1-5,3.5-6.7c1.7-1.2,4.1-1.9,7.3-1.9h4.9
		c1.9,0,3.8-0.1,5.7-0.2l-1.2,3.1l-0.2,0.5c-0.2,0.6-0.6,0.9-0.9,0.9c-0.1,0-0.1,0-0.2,0c0.1-0.5,0.2-0.9,0.2-1.2c0-0.6-0.3-1-1-1.2
		c-0.7-0.2-2.5-0.2-5.2-0.2h-1.4l-0.8,7.3h3c1.7,0,3.2-0.1,4.5-0.2c-1.1,1.3-2.3,2.1-3.5,2.1c-0.6,0-1.5,0-2.7-0.1c-0.5,0-0.8,0-1,0
		h-0.4l-0.1,1.3c-0.2,1.9-0.5,3.3-1,4c-0.4,0.8-1.3,1.6-2.7,2.3l3.3,0.2l1.3,0.1c0.9,0.1,2.1,0.1,3.4,0.1c2.3,0,4.1-0.7,5.5-2.1
		c0.2,0.2,0.2,0.4,0.2,0.5c0,0.3-0.5,0.8-1.6,1.7c-1.5,1.2-3.3,1.9-5.1,1.9c-1.7,0-4.2-0.1-7.3-0.4l-5.6-0.5c-0.2,0-0.8-0.1-2.1-0.1
		l2.7-2.1c1,0.2,2.1,0.3,3.6,0.4c1-0.4,1.6-0.9,1.9-1.6c0.3-0.7,0.6-2.1,0.8-4.2l1.1-10.6h-0.5c-1.9,0-3.5,0.4-4.5,1.2
		c-1,0.8-1.6,1.9-1.6,3.3C-116.7-97.3-116.6-96.6-116.2-95.8z"/>
</g>
<g id="LIVELLO_7_-_I_CECCHINI">
	<g transform="matrix(0.909714, 0, 0, 0.909714, 365.112, 397.024)">
		<path class="st8" d="M-269-335.8l-2.5,2.3c-0.2-0.8-0.3-1.5-0.3-2.3c0-2.5,0.9-4.6,2.9-6.2c2-1.6,4.5-2.3,7.7-2.3h1.2
			c-0.4,2.3-0.7,3.8-0.8,4.6l-0.8,7.3l-0.2,1.6c-0.2,1.4-0.5,2.5-0.9,3.1c-0.4,0.6-1.3,1.2-2.5,1.9l4.3,0.2l-1.9,1.7l-7.3-0.3
			l1.9-1.9l1.6,0.2c1.2-0.8,1.9-2.3,2.3-4.7l0.2-1.4l1.1-10.5h-0.5c-4.2,0-6.2,1.3-6.2,4.1C-269.7-337.4-269.4-336.6-269-335.8z"/>
		<path class="st8" d="M-233.6-329.4c0.2,0.1,0.3,0.3,0.3,0.5c0,0.6-0.6,1.5-1.9,2.5c-2.1,1.9-4.4,2.7-6.9,2.7c-2.1,0-3.8-0.7-5-2.3
			c-1.2-1.6-1.9-3.6-1.9-6.1c0-3.7,1.1-6.7,3.5-9.2c2.3-2.5,5.2-3.7,8.6-3.7c1.7,0,3.6,0.3,5.5,1l-1,2.3l-0.3,0.6
			c-0.2,0.5-0.5,0.7-0.9,0.7c-0.1,0-0.2,0-0.3,0c0.1-0.3,0.2-0.5,0.2-0.7c0-0.7-0.4-1.2-1.3-1.7s-1.9-0.7-3.2-0.7
			c-2.5,0-4.4,0.9-5.9,2.9c-1.5,2-2.3,4.4-2.3,7.5c0,2.3,0.5,4.3,1.6,5.7s2.5,2.1,4.3,2.1c1.3,0,2.5-0.4,3.9-1.1
			C-235.1-327-234.2-328.2-233.6-329.4z"/>
		<path class="st8" d="M-227.3-335.7l-2.5,2.3c-0.2-0.8-0.4-1.5-0.4-2.3c0-2.7,1.1-5,3.5-6.7c1.7-1.2,4.1-1.9,7.3-1.9h4.9
			c1.9,0,3.8-0.1,5.7-0.2l-1.2,3.1l-0.2,0.5c-0.2,0.6-0.6,0.9-0.9,0.9c-0.1,0-0.1,0-0.2,0c0.1-0.5,0.2-0.9,0.2-1.2
			c0-0.6-0.3-1-1-1.2c-0.7-0.2-2.5-0.2-5.2-0.2h-1.4l-0.8,7.3h3c1.7,0,3.2-0.1,4.5-0.2c-1.1,1.3-2.3,2.1-3.5,2.1
			c-0.6,0-1.5,0-2.7-0.1c-0.5,0-0.8,0-1,0h-0.4l-0.1,1.3c-0.2,1.9-0.5,3.3-1,4c-0.5,0.7-1.3,1.6-2.7,2.3l3.3,0.2l1.3,0.1
			c0.9,0.1,2.1,0.1,3.4,0.1c2.3,0,4.1-0.7,5.5-2.1c0.2,0.2,0.2,0.4,0.2,0.5c0,0.3-0.5,0.8-1.6,1.7c-1.5,1.2-3.3,1.9-5.1,1.9
			c-1.7,0-4.2-0.1-7.3-0.4l-5.6-0.5c-0.2,0-0.8,0-2.1-0.1l2.7-2.1c1,0.2,2.1,0.3,3.6,0.4c1-0.4,1.6-0.9,1.9-1.6
			c0.3-0.7,0.6-2.1,0.8-4.2l1.1-10.6h-0.5c-1.9,0-3.5,0.4-4.5,1.2c-1,0.8-1.6,1.9-1.6,3.3C-228.1-337.4-227.7-336.5-227.3-335.7z"/>
		<path class="st8" d="M-192.1-329.4c0.2,0.1,0.3,0.3,0.3,0.5c0,0.6-0.6,1.5-1.9,2.5c-2.1,1.9-4.4,2.7-6.9,2.7c-2.1,0-3.8-0.7-5-2.3
			c-1.2-1.6-1.9-3.6-1.9-6.1c0-3.7,1.1-6.7,3.5-9.2c2.3-2.5,5.2-3.7,8.6-3.7c1.7,0,3.6,0.3,5.5,1l-1,2.3l-0.3,0.6
			c-0.2,0.5-0.5,0.7-0.9,0.7c-0.1,0-0.2,0-0.3,0c0.1-0.3,0.2-0.5,0.2-0.7c0-0.7-0.4-1.2-1.3-1.7c-0.9-0.5-1.9-0.7-3.2-0.7
			c-2.5,0-4.4,0.9-5.9,2.9s-2.3,4.4-2.3,7.5c0,2.3,0.5,4.3,1.6,5.7c1.1,1.4,2.5,2.1,4.3,2.1c1.3,0,2.5-0.4,3.9-1.1
			C-193.6-327-192.7-328.2-192.1-329.4z"/>
		<path class="st8" d="M-173-329.4c0.2,0.1,0.3,0.3,0.3,0.5c0,0.6-0.6,1.5-1.9,2.5c-2.1,1.9-4.4,2.7-6.9,2.7c-2.1,0-3.8-0.7-5-2.3
			c-1.2-1.6-1.9-3.6-1.9-6.1c0-3.7,1.1-6.7,3.5-9.2c2.3-2.5,5.2-3.7,8.6-3.7c1.7,0,3.6,0.3,5.5,1l-1,2.3l-0.3,0.6
			c-0.2,0.5-0.5,0.7-0.9,0.7c-0.1,0-0.2,0-0.3,0c0.1-0.3,0.2-0.5,0.2-0.7c0-0.7-0.4-1.2-1.3-1.7s-1.9-0.7-3.2-0.7
			c-2.5,0-4.4,0.9-5.9,2.9s-2.3,4.4-2.3,7.5c0,2.3,0.5,4.3,1.6,5.7c1,1.4,2.5,2.1,4.3,2.1c1.3,0,2.5-0.4,3.9-1.1
			C-174.6-327-173.6-328.2-173-329.4z"/>
		<path class="st8" d="M-158.1-344.3c-0.4,2.3-0.7,3.8-0.8,4.6l-0.5,4.2h8.4l0.1-0.5c0.6-5.8,1.9-9.7,3.5-11.9
			c2.1-2.5,4.3-3.9,6.7-3.9c0.9,0,1.7,0.2,2.5,0.5l-2.3,2.1c-0.8-0.6-1.6-0.8-2.5-0.8c-1.7,0-2.9,0.8-3.5,2.5
			c-0.6,1.7-1.3,5.4-1.9,11.3l-0.2,2.1c-0.3,2.7-0.4,4.7-0.4,6.1c0,0.8,0.4,1.2,1.1,1.2c0.5,0,1.2-0.2,2.1-0.7
			c0,0.2,0.1,0.3,0.1,0.4c0,0.3-0.3,0.6-0.8,0.8l-0.8,0.4l-4.4,2.1c0-1.9,0.2-5,0.7-9.4l0.1-0.5h-8.4l-0.1,1.3l-0.2,1.6
			c-0.2,1.4-0.5,2.5-0.9,3.1c-0.4,0.6-1.3,1.2-2.5,1.9l3.6,0.2l-1.9,1.7l-6.4-0.3l1.9-1.9l1.6,0.2c0.8-0.5,1.3-1.1,1.6-1.9
			c0.3-0.8,0.5-2.1,0.8-4.3l1.1-10.5h-0.5c-4.2,0-6.2,1.3-6.2,4.1c0,0.8,0.2,1.7,0.7,2.5l-2.5,2.3c-0.2-0.8-0.3-1.5-0.3-2.3
			c0-2.5,0.9-4.6,2.9-6.2c1.9-1.6,4.5-2.3,7.7-2.3h0.7v0.1H-158.1z"/>
		<path class="st8" d="M-140.9-335.8l-2.5,2.3c-0.2-0.8-0.3-1.5-0.3-2.3c0-2.5,0.9-4.6,2.9-6.2c1.9-1.5,4.5-2.3,7.7-2.3h1.2
			c-0.4,2.3-0.7,3.8-0.8,4.6l-0.8,7.3l-0.2,1.6c-0.2,1.4-0.5,2.5-0.9,3.1c-0.4,0.6-1.3,1.2-2.5,1.9l4.3,0.2l-1.9,1.7l-7.3-0.3
			l1.9-1.9l1.6,0.2c1.2-0.8,1.9-2.3,2.3-4.7l0.2-1.4l1.1-10.5h-0.5c-4.2,0-6.2,1.3-6.2,4.1C-141.7-337.4-141.3-336.6-140.9-335.8z"
			/>
		<path class="st8" d="M-126.9-335.8l-2.5,2.3c-0.2-0.8-0.4-1.5-0.4-2.3c0-2.5,0.9-4.5,2.7-6.1c1.9-1.6,4.2-2.5,6.9-2.5
			c0.4,0,0.7,0,1.1,0s0.6,0,0.7,0h0.2c0,0.3-0.1,0.6-0.1,0.7c0,2.1,1.3,4.7,4,7.9l1.1,1.3l1,1.2c1,1.2,1.9,2.3,2.5,3.5l1-8.2
			c0.6-5,1.7-8.5,3.5-10.4c1.9-2.3,4.1-3.4,6.3-3.4c0.9,0,1.7,0.2,2.5,0.5l-2.3,2.3c-0.9-0.5-1.7-0.8-2.5-0.8
			c-1.5,0-2.7,0.7-3.6,2.1s-1.4,3.9-1.9,7.5l-1.5,12.7l-1.9,3.8c-0.4-1.9-0.9-3.3-1.4-4.2c-0.5-0.9-1.5-2.3-3.1-4.2l-1.1-1.4
			c-1.7-2.1-3.1-4.1-3.8-5.7l-0.7,6.7l-0.2,1.6c-0.2,1.3-0.4,2.3-0.8,3c-0.4,0.6-1,1.3-2.1,2.1l3.3,0.3l-1.7,1.7l-6.5-0.3l1.9-1.9
			l1.6,0.1c0.7-0.5,1.3-1.1,1.5-1.7c0.2-0.6,0.5-1.7,0.7-3.2l0.1-1.3l1.1-10.3h-0.7c-4.2,0-6.2,1.3-6.2,4.1
			C-127.7-337.4-127.5-336.6-126.9-335.8z"/>
		<path class="st8" d="M-99.9-335.8l-2.5,2.3c-0.2-0.8-0.3-1.5-0.3-2.3c0-2.5,0.9-4.6,2.9-6.2c1.9-1.5,4.5-2.3,7.7-2.3h1.2
			c-0.4,2.3-0.7,3.8-0.8,4.6l-0.8,7.3l-0.2,1.6c-0.2,1.4-0.5,2.5-0.9,3.1c-0.4,0.6-1.3,1.2-2.5,1.9l4.2,0.1l-1.9,1.7l-7.3-0.3
			l1.9-1.9l1.6,0.2c1.2-0.8,1.9-2.3,2.3-4.7l0.2-1.4l1.1-10.5h-0.5c-4.2,0-6.2,1.3-6.2,4.1C-100.6-337.4-100.4-336.6-99.9-335.8z"/>
	</g>
</g>
</svg>
