<svg xmlns="http://www.w3.org/2000/svg" width="710" height="70"><defs><style>.str0 {stroke:#945E36;stroke-width:13.3344} .fil11 {fill:none} .fil12 {fill:black} .fil32 {fill:#30410A} .fil14 {fill:#331F0E} .fil63 {fill:#422919} .fil30 {fill:#496117} .fil29 {fill:#5B781C} .fil10 {fill:#633E25} .fil61 {fill:#643F2C} .fil46 {fill:#6E771F} .fil3 {fill:#754E06} .fil26 {fill:#755315} .fil62 {fill:#764C2A} .fil50 {fill:#77701F} .fil8 {fill:#7A4D2E} .fil60 {fill:#7A4E35} .fil43 {fill:#7B6217} .fil45 {fill:#879226} .fil59 {fill:#899626} .fil0 {fill:#8C5B00} .fil5 {fill:#8C5C03} .fil20 {fill:#8F6719} .fil64 {fill:#916648} .fil49 {fill:#928926} .fil53 {fill:#92A229} .fil42 {fill:#93751B} .fil9 {fill:#945E36} .fil56 {fill:#969026} .fil4 {fill:#976404} .fil44 {fill:#98A332} .fil28 {fill:#A2952E} .fil58 {fill:#A2B12D} .fil2 {fill:#A36D15} .fil48 {fill:#A39A32} .fil40 {fill:#A8862F} .fil52 {fill:#AABD30} .fil21 {fill:#AC7C1E} .fil6 {fill:#AE703E} .fil55 {fill:#B1AA2C} .fil57 {fill:#B2C23B} .fil68 {fill:#BAA471} .fil51 {fill:#BBCE3F} .fil27 {fill:#BDAD36} .fil1 {fill:#BE7F19} .fil13 {fill:#C07E4C} .fil54 {fill:#C2BB3B} .fil41 {fill:#C4A141} .fil47 {fill:#C98D63} .fil23 {fill:#CB9322} .fil19 {fill:#D6A85E} .fil65 {fill:#D9BF82} .fil22 {fill:#E5A029} .fil24 {fill:#E9AA45} .fil36 {fill:#EFD484} .fil17 {fill:#F0C37A} .fil35 {fill:#F2E4BA} .fil37 {fill:#F2EAD2} .fil16 {fill:#F3D594} .fil18 {fill:#3D9CF9} .fil67 {fill:#F7E0B4} .fil34 {fill:#F9E5BF} .fil66 {fill:#FBEDD4} .fil25 {fill:#FCE18B} .fil38 {fill:#FFF2C4} .fil39 {fill:#FFF7DD} .fil33 {fill:white} .fil7 {fill:#633E25;fill-rule:nonzero} .fil31 {fill:white;fill-opacity:0.101961} .fil15 {fill:black;fill-opacity:0.200000}</style><clipPath id="id0"><path id="path9" d="M4165 281h408v408h-408V281z"/></clipPath></defs><path id="canvas_background" fill="none" d="M-1-1h712v72H-1z"/><g id="_879378704"><path id="path1323" fill="#8c5c03" d="M-12-10h722v524c-108 0-94-34-156-35-40 0-115 31-169 35-57 4-124-37-173-37-92 0-132 37-224 37V-10z" class="fil5"/><path id="path1325" fill="#8c5b00" d="M-12-10h722v482c-108 0-57-27-119-28-40 0-152 32-206 36-57 4-172-61-221-61-92 0-84 53-176 53V-10z" class="fil0"/><path id="path1327" fill="#be7f19" d="M372 304c78 64 109-195 183-41 9 17 84 56 100 24s27-29 55-39V-10H-12v258c65-10 59 30 96 31 36 2 54-40 82-42s19 6 41 25c21 18 59 59 90 43 30-15 38-31 75-1z" class="fil1"/><path id="path1329" fill="#a36d15" d="M297 197c-31 15-69-25-90-44-22-19-13-27-41-25s-46 44-82 43c-37-2-31-42-96-31v166c29 0 40 5 56 37s91-7 99-24c74-153 105 105 183 41 37-30 45-14 76 2 30 16 68-25 90-44 21-19 12-27 40-25s46 44 82 43c37-2 31-27 96-30V141c-28 0-39 5-55 37s-91-7-100-24C481 1 450 259 372 195c-37-30-45-14-75 2z" class="fil2"/><path id="path1331" fill="#8c5b00" d="M89 268c18 0 32 15 32 33s-14 32-32 32-32-14-32-32 14-33 32-33z" class="fil0"/><path id="path1333" fill="#8c5b00" d="M33 229c8 0 15 7 15 15 0 9-7 16-15 16-9 0-15-7-15-16 0-8 6-15 15-15z" class="fil0"/><path id="path1335" fill="#8c5b00" d="M195 190c8 0 15 7 15 16 0 8-7 15-15 15-9 0-16-7-16-15 0-9 7-16 16-16z" class="fil0"/><path id="path1337" fill="#8c5b00" d="M283 276c14 0 26 11 26 25 0 15-12 26-26 26s-26-11-26-26c0-14 12-25 26-25z" class="fil0"/><path id="path1339" fill="#8c5b00" d="M417 289c15 0 28 12 28 28s-13 28-28 28c-16 0-29-12-29-28s13-28 29-28z" class="fil0"/><path id="path1341" fill="#8c5b00" d="M389 237c7 0 12 6 12 12s-5 11-12 11c-6 0-11-5-11-11s5-12 11-12z" class="fil0"/><path id="path1343" fill="#8c5b00" d="M538 226c8 0 16 8 16 16 0 9-8 16-16 16-9 0-16-7-16-16 0-8 7-16 16-16z" class="fil0"/><path id="path1345" fill="#8c5b00" d="M479 204c13 0 23 10 23 23s-10 23-23 23-23-10-23-23 10-23 23-23z" class="fil0"/><path id="path1347" fill="#8c5b00" d="M616 272c10 0 19 8 19 18 0 11-9 19-19 19s-19-8-19-19c0-10 9-18 19-18z" class="fil0"/><path id="path1349" fill="#8c5b00" d="M640 233c5 0 9 4 9 9s-4 9-9 9-9-4-9-9 4-9 9-9z" class="fil0"/><path id="path1351" fill="#a36d15" d="M18 355c8 0 14 6 14 13 0 8-6 14-14 14-7 0-13-6-13-14 0-7 6-13 13-13z" class="fil2"/><path id="path1353" fill="#a36d15" d="M99 376c8 0 14 7 14 15s-6 14-14 14-15-6-15-14 7-15 15-15z" class="fil2"/><path id="path1355" fill="#a36d15" d="M175 307c9 0 15 6 15 15 0 8-6 15-15 15-8 0-15-7-15-15 0-9 7-15 15-15z" class="fil2"/><path id="path1357" fill="#a36d15" d="M273 405c5 0 9 4 9 8 0 5-4 9-9 9-4 0-8-4-8-9 0-4 4-8 8-8z" class="fil2"/><path id="path1359" fill="#a36d15" d="M367 368c4 0 7 4 7 8s-3 8-7 8c-5 0-8-4-8-8s3-8 8-8z" class="fil2"/><path id="path1361" fill="#a36d15" d="M488 363c6 0 11 5 11 11s-5 11-11 11-10-5-10-11 4-11 10-11z" class="fil2"/><path id="path1363" fill="#a36d15" d="M550 333c11 0 20 10 20 21s-9 21-20 21c-12 0-21-10-21-21s9-21 21-21z" class="fil2"/><path id="path1365" fill="#a36d15" d="M657 354c7 0 12 5 12 12s-5 12-12 12-12-5-12-12 5-12 12-12z" class="fil2"/><path id="path1367" fill="#a36d15" d="M43 79c8 0 15 7 15 16 0 8-7 15-15 15-9 0-16-7-16-15 0-9 7-16 16-16z" class="fil2"/><path id="path1369" fill="#a36d15" d="M153 43c5 0 8 4 8 8s-3 8-8 8c-4 0-7-4-7-8s3-8 7-8z" class="fil2"/><path id="path1371" fill="#a36d15" d="M259 111c14 0 25 11 25 25s-11 25-25 25-25-11-25-25 11-25 25-25z" class="fil2"/><path id="path1373" fill="#a36d15" d="M366 102c5 0 10 5 10 10 0 6-5 10-10 10-6 0-10-4-10-10 0-5 4-10 10-10z" class="fil2"/><path id="path1375" fill="#a36d15" d="M385 37c3 0 5 2 5 4 0 3-2 5-5 5-2 0-4-2-4-5 0-2 2-4 4-4z" class="fil2"/><path id="path1377" fill="#a36d15" d="M644 117c8 0 14 6 14 14s-6 14-14 14-14-6-14-14 6-14 14-14z" class="fil2"/><path id="path1379" fill="#a36d15" d="M574 104c4 0 8 3 8 7s-4 7-8 7-7-3-7-7 3-7 7-7z" class="fil2"/><path id="path1381" fill="#a36d15" d="M408 135c14 0 24 11 24 24s-10 24-24 24c-13 0-23-11-23-24s10-24 23-24z" class="fil2"/><path id="path1383" fill="#a36d15" d="M650 46c6 0 12 5 12 11 0 7-6 12-12 12-7 0-12-5-12-12 0-6 5-11 12-11z" class="fil2"/><path id="path1385" fill="#be7f19" d="M88 197c6 0 11 4 11 10s-5 11-11 11-10-5-10-11 4-10 10-10z" class="fil1"/><path id="path1387" fill="#be7f19" d="M191 151c3 0 6 2 6 5 0 4-3 6-6 6s-6-2-6-6c0-3 3-5 6-5z" class="fil1"/><path id="path1389" fill="#be7f19" d="M317 197c7 0 13 6 13 14 0 7-6 13-13 13-8 0-14-6-14-13 0-8 6-14 14-14z" class="fil1"/><path id="path1391" fill="#be7f19" d="M497 157c4 0 7 3 7 8 0 4-3 7-7 7-5 0-8-3-8-7 0-5 3-8 8-8z" class="fil1"/><path id="path1393" fill="#be7f19" d="M675 183c4 0 7 3 7 7 0 5-3 8-7 8-5 0-8-3-8-8 0-4 3-7 8-7z" class="fil1"/><circle id="circle1395" cx="133" cy="453" r="20" fill="#8c5b00" class="fil0"/><circle id="circle1397" cx="203" cy="450" r="12" fill="#8c5b00" class="fil0"/><circle id="circle1399" cx="598" cy="457" r="8" fill="#8c5b00" class="fil0"/><circle id="circle1401" cx="656" cy="488" r="11" fill="#8c5b00" class="fil0"/><circle id="circle1403" cx="362" cy="488" r="8" fill="#8c5b00" class="fil0"/><path id="path1405" fill-opacity=".2" d="M-12 11h722v147c-23-2-52 23-84 22-35-2-73-22-98 5-30 32-120 80-184 38-128-84-150-75-234-28-52 29-81-37-122-37V11z" class="fil15"/><path id="path1407" fill="#f3d594" d="M-12-10h722v148c-23-2-52 23-84 21-35-2-73-22-98 5-30 33-120 80-184 38-128-83-150-75-234-27-52 29-81-37-122-37V-10z" class="fil16"/><path id="path1411" fill="#3D9CF9" d="M-12-10h722v23c-51 0-69 13-126 11-55-1-149-17-201-15-97 3-180 18-274 18-45 0-76-14-121-14v-23z" class="fil18"/><path id="path1413" fill="#d6a85e" d="M-12 125v13c41 0 70 66 122 37 14-9 27-16 39-21 1-1 2-1 3-2 54-25 88-18 192 50 6 4 12 7 18 10l12 3c59 15 128-23 154-51 25-27 63-7 98-5 5 0 10 0 15-1s9-2 13-3c21-7 40-19 56-17v-13c-16-2-35 11-56 17-4 1-8 2-13 3s-10 2-15 1c-35-2-73-21-98 5-26 28-95 67-154 52-4-1-8-3-12-4l-18-9c-104-68-138-76-192-50-1 0-2 0-3 1-12 5-25 13-39 21-52 29-81-37-122-37z" class="fil19"/><circle id="circle1421" cx="482" cy="135" r="15" fill="#d6a85e" class="fil19"/></g></svg>