<svg xmlns="http://www.w3.org/2000/svg" width="584" height="447" xmlns:xlink="http://www.w3.org/1999/xlink"><defs><style>.str2 {stroke:#5E7F21;stroke-width:4.11419} .str3 {stroke:#747F20;stroke-width:4.11419} .str1 {stroke:#945E36;stroke-width:10.7984} .str0 {stroke:#633E25;stroke-width:18.6056} .fil16 {fill:none} .fil22 {fill:black} .fil67 {fill:#29C14F} .fil24 {fill:#331F0E} .fil66 {fill:#37D561} .fil15 {fill:#3B9CFB} .fil25 {fill:#4A661C} .fil33 {fill:#5B661B} .fil9 {fill:#5E3518} .fil29 {fill:#5E7F21} .fil3 {fill:#63391B} .fil21 {fill:#633E25} .fil65 {fill:#66E186} .fil8 {fill:#693C1C} .fil70 {fill:#69DF89} .fil61 {fill:#6B3E1F} .fil5 {fill:#6FA124} .fil28 {fill:#729A28} .fil36 {fill:#747F20} .fil32 {fill:#76A22A} .fil19 {fill:#7A4D2E} .fil0 {fill:#7B4720} .fil69 {fill:#80E49A} .fil27 {fill:#82AB36} .fil11 {fill:#82D2FF} .fil31 {fill:#8ABD31} .fil42 {fill:#8CA22A} .fil35 {fill:#8D9A27} .fil64 {fill:#8EF0C1} .fil2 {fill:#905833} .fil54 {fill:#91A224} .fil39 {fill:#92A229} .fil20 {fill:#945E36} .fil68 {fill:#98EAA2} .fil30 {fill:#99CE40} .fil34 {fill:#9DAB35} .fil12 {fill:#9FE1FF} .fil41 {fill:#A3BD31} .fil52 {fill:#A9BD2A} .fil38 {fill:#AABD30} .fil1 {fill:#AC6C48} .fil71 {fill:#ADEFB4} .fil17 {fill:#AE703E} .fil6 {fill:#B3D02A} .fil56 {fill:#B4B3B8} .fil40 {fill:#B4CE40} .fil53 {fill:#BACE38} .fil37 {fill:#BBCE3F} .fil23 {fill:#C07E4C} .fil72 {fill:#C5F8E9} .fil7 {fill:#C6DE5C} .fil26 {fill:#C98D63} .fil58 {fill:#D6AE70} .fil62 {fill:#DDF8FF} .fil59 {fill:#DEBB88} .fil55 {fill:#DFDDDE} .fil48 {fill:#E21664} .fil60 {fill:#E5C9A1} .fil57 {fill:#E7E5E6} .fil46 {fill:#EE4686} .fil45 {fill:#F0649B} .fil50 {fill:#FE3B00} .fil49 {fill:#FF6600} .fil44 {fill:#FFC979} .fil51 {fill:#FFCC00} .fil43 {fill:#FFDCA4} .fil47 {fill:white} .fil18 {fill:#633E25;fill-rule:nonzero} .fil4 {fill:black;fill-opacity:0.200000} .fil13 {fill:url(#id1)} .fil63 {fill:url(#id2)} .fil10 {fill:url(#id3)} .fil14 {fill:url(#id4)}</style><clipPath id="id0"><path id="path9" d="M3380 162h241v241h-241V162z"/></clipPath><linearGradient id="id1" x1="2850.69" x2="2850.69" y1="207.39" y2="510.81" gradientUnits="userSpaceOnUse"><stop id="stop12" stop-color="#6BCBF1" offset="0"/><stop id="stop14" stop-color="#3B9CFB" offset="1"/></linearGradient><linearGradient id="id3" x1=".5" x2=".5" y1=".01" y2=".99" xlink:href="#id1"/><linearGradient id="id4" x1=".5" x2=".5" y1=".11" y2=".89" xlink:href="#id1"/><linearGradient id="linearGradient5585" x1=".5" x2=".5" y2="1" xlink:href="#id1"/></defs><path id="canvas_background" fill="none" d="M-1-1h586v449H-1z"/><g id="_931594944"><g id="g1192"><path id="path1194" fill="url(#id3)" d="M585.4 42.62v262H.4v-262c63 31 81 47 152 44 72-3 168-86 268-86 57 0 109 42 165 42z" class="fil10"/><path id="path1196" fill="#82d2ff" d="M585.4 75.62c-55-31-108-41-165-41-100 0-196 83-268 85-71 3-102-10-152-44v-33c57 29 81 47 152 44 72-3 168-86 268-86 57 0 110 14 165 42v33z" class="fil11"/><path id="path1198" fill="#9fe1ff" d="M585.4 55.62c-51-22-108-42-165-42-100 0-196 83-268 86-71 2-93-6-152-44v-13c68 31 81 47 152 44 72-3 168-86 268-86 57 0 108 13 165 42v13z" class="fil12"/></g><g id="g1200"><path id="path1202" fill="url(#linearGradient5585)" d="M.4 114.62v262h585v-262c-63 31-80 47-152 44s-167-86-268-86c-56 0-109 42-165 42z" class="fil13"/><path id="path1204" fill="#82d2ff" d="M.4 147.62c55-31 109-41 165-41 101 0 196 83 268 85 72 3 102-10 152-44v-33c-57 29-80 47-152 44s-167-86-268-86c-56 0-109 13-165 42v33z" class="fil11"/><path id="path1206" fill="#9fe1ff" d="M.4 127.62c51-22 109-42 165-42 101 0 196 83 268 86 72 2 94-6 152-44v-13c-68 31-80 47-152 44s-167-86-268-86c-56 0-108 13-165 42v13z" class="fil12"/></g><g id="g1208"><path id="path1210" fill="url(#id4)" d="M585.4 189.62v262H.4v-262c63 31 81 47 152 44 72-3 168-86 268-86 57 0 109 42 165 42z" class="fil14"/><path id="path1212" fill="#82d2ff" d="M585.4 222.62c-55-31-108-41-165-41-100 0-196 83-268 85-71 3-102-10-152-44v-33c57 29 81 47 152 44 72-3 168-86 268-86 57 0 110 13 165 42v33z" class="fil11"/><path id="path1214" fill="#9fe1ff" d="M585.4 202.62c-51-22-108-42-165-42-100 0-196 83-268 86-71 2-93-6-152-44v-13c68 31 81 47 152 44 72-3 168-86 268-86 57 0 108 13 165 42v13z" class="fil12"/></g></g></svg>